<mxfile host="65bd71144e" modified="2021-01-14T09:08:39.182Z" agent="5.0 (Windows NT 10.0; Win64; x64) AppleWebKit/537.36 (KHTML, like Gecko) Code/1.52.1 Chrome/83.0.4103.122 Electron/9.3.5 Safari/537.36" etag="G1I7HKRLLhZSNcNBVY0e" version="13.10.0" type="embed" pages="6">
    <diagram id="gRD08vSCo3lafKsSWLf3" name="page-overview">
        <mxGraphModel dx="853" dy="617" grid="1" gridSize="10" guides="1" tooltips="1" connect="1" arrows="1" fold="1" page="1" pageScale="1" pageWidth="827" pageHeight="1169" background="#ffffff" math="0" shadow="0">
            <root>
                <mxCell id="0"/>
                <mxCell id="1" parent="0"/>
                <mxCell id="49" value="Page Body" style="rounded=0;whiteSpace=wrap;html=1;fillColor=#fff2cc;strokeColor=#d6b656;strokeWidth=2;fontSize=16;" parent="1" vertex="1">
                    <mxGeometry x="80" y="160" width="160" height="120" as="geometry"/>
                </mxCell>
                <mxCell id="48" value="Page Header&lt;br style=&quot;font-size: 16px;&quot;&gt;（struct page）" style="rounded=0;whiteSpace=wrap;html=1;fillColor=#dae8fc;strokeColor=#6c8ebf;strokeWidth=2;fontSize=16;" parent="1" vertex="1">
                    <mxGeometry x="80" y="120" width="160" height="40" as="geometry"/>
                </mxCell>
            </root>
        </mxGraphModel>
    </diagram>
    <diagram id="yRPU9GHWPUzGr9q_iJvw" name="branch page">
        <mxGraphModel dx="853" dy="617" grid="1" gridSize="10" guides="1" tooltips="1" connect="1" arrows="1" fold="1" page="1" pageScale="1" pageWidth="827" pageHeight="1169" background="#ffffff" math="0" shadow="0">
            <root>
                <mxCell id="2BrCZiYGlWawBYjWSpyh-0"/>
                <mxCell id="2BrCZiYGlWawBYjWSpyh-1" parent="2BrCZiYGlWawBYjWSpyh-0"/>
                <mxCell id="Wi-ovPSlklR6T6JCpQ3W-3" value="" style="edgeStyle=orthogonalEdgeStyle;rounded=0;orthogonalLoop=1;jettySize=auto;html=1;fontSize=16;strokeWidth=1;" parent="2BrCZiYGlWawBYjWSpyh-1" source="qbr3uYHHqqQt8SRsH9kM-0" target="Wi-ovPSlklR6T6JCpQ3W-2" edge="1">
                    <mxGeometry relative="1" as="geometry"/>
                </mxCell>
                <mxCell id="qbr3uYHHqqQt8SRsH9kM-0" value="branchPageElement 0" style="rounded=0;whiteSpace=wrap;html=1;fillColor=#d5e8d4;strokeColor=#82b366;strokeWidth=2;fontSize=16;" parent="2BrCZiYGlWawBYjWSpyh-1" vertex="1">
                    <mxGeometry x="160" y="160" width="240" height="20" as="geometry"/>
                </mxCell>
                <mxCell id="qbr3uYHHqqQt8SRsH9kM-1" value="page" style="rounded=0;whiteSpace=wrap;html=1;fillColor=#dae8fc;strokeColor=#6c8ebf;strokeWidth=2;fontSize=16;" parent="2BrCZiYGlWawBYjWSpyh-1" vertex="1">
                    <mxGeometry x="160" y="120" width="240" height="40" as="geometry"/>
                </mxCell>
                <mxCell id="pLTECOjCYNInm3Ar5cr6-0" value="branchPageElement 1" style="rounded=0;whiteSpace=wrap;html=1;fillColor=#d5e8d4;strokeColor=#82b366;strokeWidth=2;fontSize=16;" parent="2BrCZiYGlWawBYjWSpyh-1" vertex="1">
                    <mxGeometry x="160" y="180" width="240" height="20" as="geometry"/>
                </mxCell>
                <mxCell id="pLTECOjCYNInm3Ar5cr6-1" value="..." style="rounded=0;whiteSpace=wrap;html=1;fillColor=#d5e8d4;strokeColor=#82b366;strokeWidth=2;fontSize=16;" parent="2BrCZiYGlWawBYjWSpyh-1" vertex="1">
                    <mxGeometry x="160" y="200" width="240" height="60" as="geometry"/>
                </mxCell>
                <mxCell id="pLTECOjCYNInm3Ar5cr6-2" value="branchPageElement n" style="rounded=0;whiteSpace=wrap;html=1;fillColor=#d5e8d4;strokeColor=#82b366;strokeWidth=2;fontSize=16;" parent="2BrCZiYGlWawBYjWSpyh-1" vertex="1">
                    <mxGeometry x="160" y="260" width="240" height="20" as="geometry"/>
                </mxCell>
                <mxCell id="pLTECOjCYNInm3Ar5cr6-3" value="key 0" style="rounded=0;whiteSpace=wrap;html=1;fillColor=#fff2cc;strokeColor=#d6b656;strokeWidth=2;fontSize=16;" parent="2BrCZiYGlWawBYjWSpyh-1" vertex="1">
                    <mxGeometry x="160" y="280" width="240" height="40" as="geometry"/>
                </mxCell>
                <mxCell id="pLTECOjCYNInm3Ar5cr6-4" value="key 1" style="rounded=0;whiteSpace=wrap;html=1;fillColor=#fff2cc;strokeColor=#d6b656;strokeWidth=2;fontSize=16;" parent="2BrCZiYGlWawBYjWSpyh-1" vertex="1">
                    <mxGeometry x="160" y="320" width="240" height="20" as="geometry"/>
                </mxCell>
                <mxCell id="pLTECOjCYNInm3Ar5cr6-5" value="..." style="rounded=0;whiteSpace=wrap;html=1;fillColor=#fff2cc;strokeColor=#d6b656;strokeWidth=2;fontSize=16;" parent="2BrCZiYGlWawBYjWSpyh-1" vertex="1">
                    <mxGeometry x="160" y="340" width="240" height="30" as="geometry"/>
                </mxCell>
                <mxCell id="pLTECOjCYNInm3Ar5cr6-6" value="key n" style="rounded=0;whiteSpace=wrap;html=1;fillColor=#fff2cc;strokeColor=#d6b656;strokeWidth=2;fontSize=16;" parent="2BrCZiYGlWawBYjWSpyh-1" vertex="1">
                    <mxGeometry x="160" y="370" width="240" height="30" as="geometry"/>
                </mxCell>
                <mxCell id="Wi-ovPSlklR6T6JCpQ3W-0" value="" style="shape=curlyBracket;whiteSpace=wrap;html=1;rounded=1;strokeWidth=1;fontSize=16;" parent="2BrCZiYGlWawBYjWSpyh-1" vertex="1">
                    <mxGeometry x="140" y="160" width="20" height="120" as="geometry"/>
                </mxCell>
                <mxCell id="Wi-ovPSlklR6T6JCpQ3W-1" value="page.count" style="text;html=1;align=center;verticalAlign=middle;resizable=0;points=[];autosize=1;fontSize=16;" parent="2BrCZiYGlWawBYjWSpyh-1" vertex="1">
                    <mxGeometry x="50" y="210" width="90" height="20" as="geometry"/>
                </mxCell>
                <mxCell id="rMVtZhYzW1JlxRTmxOjk-1" style="edgeStyle=orthogonalEdgeStyle;rounded=0;orthogonalLoop=1;jettySize=auto;html=1;exitX=0;exitY=0.5;exitDx=0;exitDy=0;entryX=1;entryY=0;entryDx=0;entryDy=0;strokeWidth=1;fontSize=16;" parent="2BrCZiYGlWawBYjWSpyh-1" source="Wi-ovPSlklR6T6JCpQ3W-2" target="pLTECOjCYNInm3Ar5cr6-3" edge="1">
                    <mxGeometry relative="1" as="geometry">
                        <Array as="points">
                            <mxPoint x="430" y="280"/>
                            <mxPoint x="430" y="280"/>
                        </Array>
                    </mxGeometry>
                </mxCell>
                <mxCell id="Wi-ovPSlklR6T6JCpQ3W-2" value="pos" style="whiteSpace=wrap;html=1;rounded=0;fontSize=16;strokeColor=#82b366;strokeWidth=2;fillColor=#d5e8d4;" parent="2BrCZiYGlWawBYjWSpyh-1" vertex="1">
                    <mxGeometry x="480" y="270" width="120" height="20" as="geometry"/>
                </mxCell>
                <mxCell id="rMVtZhYzW1JlxRTmxOjk-0" style="edgeStyle=orthogonalEdgeStyle;rounded=0;orthogonalLoop=1;jettySize=auto;html=1;exitX=0;exitY=0.5;exitDx=0;exitDy=0;entryX=0.1;entryY=0.5;entryDx=0;entryDy=0;entryPerimeter=0;strokeWidth=1;fontSize=16;" parent="2BrCZiYGlWawBYjWSpyh-1" source="Wi-ovPSlklR6T6JCpQ3W-4" target="Wi-ovPSlklR6T6JCpQ3W-7" edge="1">
                    <mxGeometry relative="1" as="geometry"/>
                </mxCell>
                <mxCell id="Wi-ovPSlklR6T6JCpQ3W-4" value="ksize" style="whiteSpace=wrap;html=1;rounded=0;fontSize=16;strokeColor=#82b366;strokeWidth=2;fillColor=#d5e8d4;" parent="2BrCZiYGlWawBYjWSpyh-1" vertex="1">
                    <mxGeometry x="480" y="290" width="120" height="20" as="geometry"/>
                </mxCell>
                <mxCell id="Wi-ovPSlklR6T6JCpQ3W-7" value="" style="shape=curlyBracket;whiteSpace=wrap;html=1;rounded=1;strokeWidth=1;fontSize=16;rotation=-180;" parent="2BrCZiYGlWawBYjWSpyh-1" vertex="1">
                    <mxGeometry x="400" y="280" width="20" height="40" as="geometry"/>
                </mxCell>
            </root>
        </mxGraphModel>
    </diagram>
    <diagram id="uwNCwywVMT9Uq5iVHFiI" name="leaf page">
        <mxGraphModel dx="853" dy="617" grid="1" gridSize="10" guides="1" tooltips="1" connect="1" arrows="1" fold="1" page="1" pageScale="1" pageWidth="827" pageHeight="1169" background="#ffffff" math="0" shadow="0">
            <root>
                <mxCell id="yZ8RHnXTz8HPwkWFETeh-0"/>
                <mxCell id="yZ8RHnXTz8HPwkWFETeh-1" parent="yZ8RHnXTz8HPwkWFETeh-0"/>
                <mxCell id="kdlLKzvjMsDhRUDLIzXc-0" value="" style="edgeStyle=orthogonalEdgeStyle;rounded=0;orthogonalLoop=1;jettySize=auto;html=1;fontSize=16;entryX=0.5;entryY=0;entryDx=0;entryDy=0;strokeWidth=1;" parent="yZ8RHnXTz8HPwkWFETeh-1" source="kdlLKzvjMsDhRUDLIzXc-1" target="kdlLKzvjMsDhRUDLIzXc-13" edge="1">
                    <mxGeometry relative="1" as="geometry"/>
                </mxCell>
                <mxCell id="kdlLKzvjMsDhRUDLIzXc-1" value="leafPageElement 0" style="rounded=0;whiteSpace=wrap;html=1;fillColor=#d5e8d4;strokeColor=#82b366;strokeWidth=2;fontSize=16;" parent="yZ8RHnXTz8HPwkWFETeh-1" vertex="1">
                    <mxGeometry x="160" y="160" width="240" height="20" as="geometry"/>
                </mxCell>
                <mxCell id="kdlLKzvjMsDhRUDLIzXc-2" value="page" style="rounded=0;whiteSpace=wrap;html=1;fillColor=#dae8fc;strokeColor=#6c8ebf;strokeWidth=2;fontSize=16;" parent="yZ8RHnXTz8HPwkWFETeh-1" vertex="1">
                    <mxGeometry x="160" y="120" width="240" height="40" as="geometry"/>
                </mxCell>
                <mxCell id="kdlLKzvjMsDhRUDLIzXc-3" value="leafPageElement 1" style="rounded=0;whiteSpace=wrap;html=1;fillColor=#d5e8d4;strokeColor=#82b366;strokeWidth=2;fontSize=16;" parent="yZ8RHnXTz8HPwkWFETeh-1" vertex="1">
                    <mxGeometry x="160" y="180" width="240" height="20" as="geometry"/>
                </mxCell>
                <mxCell id="kdlLKzvjMsDhRUDLIzXc-4" value="..." style="rounded=0;whiteSpace=wrap;html=1;fillColor=#d5e8d4;strokeColor=#82b366;strokeWidth=2;fontSize=16;" parent="yZ8RHnXTz8HPwkWFETeh-1" vertex="1">
                    <mxGeometry x="160" y="200" width="240" height="60" as="geometry"/>
                </mxCell>
                <mxCell id="kdlLKzvjMsDhRUDLIzXc-5" value="leafPageElement n" style="rounded=0;whiteSpace=wrap;html=1;fillColor=#d5e8d4;strokeColor=#82b366;strokeWidth=2;fontSize=16;" parent="yZ8RHnXTz8HPwkWFETeh-1" vertex="1">
                    <mxGeometry x="160" y="260" width="240" height="20" as="geometry"/>
                </mxCell>
                <mxCell id="kdlLKzvjMsDhRUDLIzXc-6" value="key 0" style="rounded=0;whiteSpace=wrap;html=1;fillColor=#fff2cc;strokeColor=#d6b656;strokeWidth=2;fontSize=16;" parent="yZ8RHnXTz8HPwkWFETeh-1" vertex="1">
                    <mxGeometry x="160" y="280" width="240" height="40" as="geometry"/>
                </mxCell>
                <mxCell id="kdlLKzvjMsDhRUDLIzXc-7" value="value 0" style="rounded=0;whiteSpace=wrap;html=1;fillColor=#f8cecc;strokeColor=#b85450;strokeWidth=2;fontSize=16;" parent="yZ8RHnXTz8HPwkWFETeh-1" vertex="1">
                    <mxGeometry x="160" y="320" width="240" height="20" as="geometry"/>
                </mxCell>
                <mxCell id="kdlLKzvjMsDhRUDLIzXc-8" value="..." style="rounded=0;whiteSpace=wrap;html=1;fillColor=#f5f5f5;strokeColor=#666666;strokeWidth=2;fontSize=16;fontColor=#333333;" parent="yZ8RHnXTz8HPwkWFETeh-1" vertex="1">
                    <mxGeometry x="160" y="400" width="240" height="40" as="geometry"/>
                </mxCell>
                <mxCell id="kdlLKzvjMsDhRUDLIzXc-9" value="key n" style="rounded=0;whiteSpace=wrap;html=1;fillColor=#fff2cc;strokeColor=#d6b656;strokeWidth=2;fontSize=16;" parent="yZ8RHnXTz8HPwkWFETeh-1" vertex="1">
                    <mxGeometry x="160" y="440" width="240" height="20" as="geometry"/>
                </mxCell>
                <mxCell id="kdlLKzvjMsDhRUDLIzXc-10" value="" style="shape=curlyBracket;whiteSpace=wrap;html=1;rounded=1;strokeWidth=1;fontSize=16;" parent="yZ8RHnXTz8HPwkWFETeh-1" vertex="1">
                    <mxGeometry x="140" y="160" width="20" height="120" as="geometry"/>
                </mxCell>
                <mxCell id="kdlLKzvjMsDhRUDLIzXc-11" value="page.count" style="text;html=1;align=center;verticalAlign=middle;resizable=0;points=[];autosize=1;fontSize=16;" parent="yZ8RHnXTz8HPwkWFETeh-1" vertex="1">
                    <mxGeometry x="50" y="210" width="90" height="20" as="geometry"/>
                </mxCell>
                <mxCell id="UxiJpHNA7SBDG9DHmTgi-3" style="edgeStyle=orthogonalEdgeStyle;rounded=0;orthogonalLoop=1;jettySize=auto;html=1;exitX=0;exitY=0.5;exitDx=0;exitDy=0;entryX=1;entryY=0;entryDx=0;entryDy=0;strokeWidth=1;fontSize=16;" parent="yZ8RHnXTz8HPwkWFETeh-1" source="kdlLKzvjMsDhRUDLIzXc-13" target="kdlLKzvjMsDhRUDLIzXc-6" edge="1">
                    <mxGeometry relative="1" as="geometry">
                        <Array as="points">
                            <mxPoint x="430" y="280"/>
                            <mxPoint x="430" y="280"/>
                        </Array>
                    </mxGeometry>
                </mxCell>
                <mxCell id="kdlLKzvjMsDhRUDLIzXc-13" value="pos" style="whiteSpace=wrap;html=1;rounded=0;fontSize=16;strokeColor=#82b366;strokeWidth=2;fillColor=#d5e8d4;" parent="yZ8RHnXTz8HPwkWFETeh-1" vertex="1">
                    <mxGeometry x="480" y="270" width="120" height="20" as="geometry"/>
                </mxCell>
                <mxCell id="UxiJpHNA7SBDG9DHmTgi-4" style="edgeStyle=orthogonalEdgeStyle;rounded=0;orthogonalLoop=1;jettySize=auto;html=1;exitX=0;exitY=0.5;exitDx=0;exitDy=0;entryX=0.1;entryY=0.5;entryDx=0;entryDy=0;entryPerimeter=0;strokeWidth=1;fontSize=16;" parent="yZ8RHnXTz8HPwkWFETeh-1" source="kdlLKzvjMsDhRUDLIzXc-15" target="kdlLKzvjMsDhRUDLIzXc-16" edge="1">
                    <mxGeometry relative="1" as="geometry"/>
                </mxCell>
                <mxCell id="kdlLKzvjMsDhRUDLIzXc-15" value="ksize" style="whiteSpace=wrap;html=1;rounded=0;fontSize=16;strokeColor=#82b366;strokeWidth=2;fillColor=#d5e8d4;" parent="yZ8RHnXTz8HPwkWFETeh-1" vertex="1">
                    <mxGeometry x="480" y="290" width="120" height="20" as="geometry"/>
                </mxCell>
                <mxCell id="kdlLKzvjMsDhRUDLIzXc-16" value="" style="shape=curlyBracket;whiteSpace=wrap;html=1;rounded=1;strokeWidth=1;fontSize=16;rotation=-180;" parent="yZ8RHnXTz8HPwkWFETeh-1" vertex="1">
                    <mxGeometry x="400" y="280" width="20" height="40" as="geometry"/>
                </mxCell>
                <mxCell id="UxiJpHNA7SBDG9DHmTgi-5" style="edgeStyle=orthogonalEdgeStyle;rounded=0;orthogonalLoop=1;jettySize=auto;html=1;exitX=0;exitY=0.5;exitDx=0;exitDy=0;entryX=0.1;entryY=0.5;entryDx=0;entryDy=0;entryPerimeter=0;strokeWidth=1;fontSize=16;" parent="yZ8RHnXTz8HPwkWFETeh-1" source="kdlLKzvjMsDhRUDLIzXc-17" target="kdlLKzvjMsDhRUDLIzXc-21" edge="1">
                    <mxGeometry relative="1" as="geometry"/>
                </mxCell>
                <mxCell id="kdlLKzvjMsDhRUDLIzXc-17" value="vsize" style="whiteSpace=wrap;html=1;rounded=0;fontSize=16;strokeColor=#82b366;strokeWidth=2;fillColor=#d5e8d4;" parent="yZ8RHnXTz8HPwkWFETeh-1" vertex="1">
                    <mxGeometry x="480" y="310" width="120" height="20" as="geometry"/>
                </mxCell>
                <mxCell id="kdlLKzvjMsDhRUDLIzXc-18" value="value 0" style="rounded=0;whiteSpace=wrap;html=1;fillColor=#f8cecc;strokeColor=#b85450;strokeWidth=2;fontSize=16;" parent="yZ8RHnXTz8HPwkWFETeh-1" vertex="1">
                    <mxGeometry x="160" y="360" width="240" height="40" as="geometry"/>
                </mxCell>
                <mxCell id="kdlLKzvjMsDhRUDLIzXc-19" value="key 1" style="rounded=0;whiteSpace=wrap;html=1;fillColor=#fff2cc;strokeColor=#d6b656;strokeWidth=2;fontSize=16;" parent="yZ8RHnXTz8HPwkWFETeh-1" vertex="1">
                    <mxGeometry x="160" y="340" width="240" height="20" as="geometry"/>
                </mxCell>
                <mxCell id="kdlLKzvjMsDhRUDLIzXc-20" value="value n" style="rounded=0;whiteSpace=wrap;html=1;fillColor=#f8cecc;strokeColor=#b85450;strokeWidth=2;fontSize=16;" parent="yZ8RHnXTz8HPwkWFETeh-1" vertex="1">
                    <mxGeometry x="160" y="460" width="240" height="20" as="geometry"/>
                </mxCell>
                <mxCell id="kdlLKzvjMsDhRUDLIzXc-21" value="" style="shape=curlyBracket;whiteSpace=wrap;html=1;rounded=1;strokeWidth=1;fontSize=16;rotation=-180;" parent="yZ8RHnXTz8HPwkWFETeh-1" vertex="1">
                    <mxGeometry x="400" y="320" width="20" height="20" as="geometry"/>
                </mxCell>
            </root>
        </mxGraphModel>
    </diagram>
    <diagram id="0C3QgaGg9t0wdMiAhVxF" name="page overflow">
        <mxGraphModel dx="853" dy="617" grid="1" gridSize="10" guides="1" tooltips="1" connect="1" arrows="1" fold="1" page="1" pageScale="1" pageWidth="827" pageHeight="1169" background="#ffffff" math="0" shadow="0">
            <root>
                <mxCell id="x9Nlrpl9BjVMQ1Isrgne-0"/>
                <mxCell id="x9Nlrpl9BjVMQ1Isrgne-1" parent="x9Nlrpl9BjVMQ1Isrgne-0"/>
                <mxCell id="hFMNuWoUWl7MEegVFiBP-0" value="Page Body" style="rounded=0;whiteSpace=wrap;html=1;fillColor=#fff2cc;strokeColor=#d6b656;strokeWidth=2;fontSize=16;" parent="x9Nlrpl9BjVMQ1Isrgne-1" vertex="1">
                    <mxGeometry x="80" y="160" width="160" height="120" as="geometry"/>
                </mxCell>
                <mxCell id="hFMNuWoUWl7MEegVFiBP-1" value="Page Header&lt;br style=&quot;font-size: 16px;&quot;&gt;（struct page）" style="rounded=0;whiteSpace=wrap;html=1;fillColor=#dae8fc;strokeColor=#6c8ebf;strokeWidth=2;fontSize=16;" parent="x9Nlrpl9BjVMQ1Isrgne-1" vertex="1">
                    <mxGeometry x="80" y="120" width="160" height="40" as="geometry"/>
                </mxCell>
                <mxCell id="hFMNuWoUWl7MEegVFiBP-2" value="Page Body" style="rounded=0;whiteSpace=wrap;html=1;fillColor=#fff2cc;strokeColor=#d6b656;strokeWidth=2;fontSize=16;" parent="x9Nlrpl9BjVMQ1Isrgne-1" vertex="1">
                    <mxGeometry x="240" y="120" width="160" height="160" as="geometry"/>
                </mxCell>
                <mxCell id="hFMNuWoUWl7MEegVFiBP-3" value="Page Body" style="rounded=0;whiteSpace=wrap;html=1;fillColor=#fff2cc;strokeColor=#d6b656;strokeWidth=2;fontSize=16;" parent="x9Nlrpl9BjVMQ1Isrgne-1" vertex="1">
                    <mxGeometry x="640" y="120" width="160" height="160" as="geometry"/>
                </mxCell>
                <mxCell id="hFMNuWoUWl7MEegVFiBP-4" value="... ..." style="rounded=0;whiteSpace=wrap;html=1;fillColor=#fff2cc;strokeColor=#d6b656;strokeWidth=2;fontSize=16;" parent="x9Nlrpl9BjVMQ1Isrgne-1" vertex="1">
                    <mxGeometry x="400" y="120" width="240" height="160" as="geometry"/>
                </mxCell>
                <mxCell id="L8O6sNlYhDoHo2YeEjn1-0" value="" style="shape=curlyBracket;whiteSpace=wrap;html=1;rounded=1;strokeWidth=1;fontSize=16;rotation=-90;" parent="x9Nlrpl9BjVMQ1Isrgne-1" vertex="1">
                    <mxGeometry x="510" y="10" width="20" height="560" as="geometry"/>
                </mxCell>
                <mxCell id="L8O6sNlYhDoHo2YeEjn1-1" value="overflow" style="text;html=1;align=center;verticalAlign=middle;resizable=0;points=[];autosize=1;fontSize=16;" parent="x9Nlrpl9BjVMQ1Isrgne-1" vertex="1">
                    <mxGeometry x="480" y="300" width="80" height="20" as="geometry"/>
                </mxCell>
            </root>
        </mxGraphModel>
    </diagram>
    <diagram id="yaBnTyiUnsz7iCIOOdaA" name="freelist page">
        <mxGraphModel dx="853" dy="617" grid="1" gridSize="10" guides="1" tooltips="1" connect="1" arrows="1" fold="1" page="1" pageScale="1" pageWidth="827" pageHeight="1169" background="#ffffff" math="0" shadow="0">
            <root>
                <mxCell id="uHR5nA1OztCmX1UTt5yI-0"/>
                <mxCell id="uHR5nA1OztCmX1UTt5yI-1" parent="uHR5nA1OztCmX1UTt5yI-0"/>
                <mxCell id="og-IJ7-DKsv4-gDsXRXE-0" value="pgid 0" style="rounded=0;whiteSpace=wrap;html=1;fillColor=#fff2cc;strokeColor=#d6b656;strokeWidth=2;fontSize=16;" vertex="1" parent="uHR5nA1OztCmX1UTt5yI-1">
                    <mxGeometry x="200" y="160" width="160" height="20" as="geometry"/>
                </mxCell>
                <mxCell id="og-IJ7-DKsv4-gDsXRXE-1" value="page" style="rounded=0;whiteSpace=wrap;html=1;fillColor=#dae8fc;strokeColor=#6c8ebf;strokeWidth=2;fontSize=16;" vertex="1" parent="uHR5nA1OztCmX1UTt5yI-1">
                    <mxGeometry x="200" y="120" width="160" height="40" as="geometry"/>
                </mxCell>
                <mxCell id="og-IJ7-DKsv4-gDsXRXE-2" value="pgid 1" style="rounded=0;whiteSpace=wrap;html=1;fillColor=#fff2cc;strokeColor=#d6b656;strokeWidth=2;fontSize=16;" vertex="1" parent="uHR5nA1OztCmX1UTt5yI-1">
                    <mxGeometry x="200" y="180" width="160" height="20" as="geometry"/>
                </mxCell>
                <mxCell id="og-IJ7-DKsv4-gDsXRXE-3" value="pgid 2" style="rounded=0;whiteSpace=wrap;html=1;fillColor=#fff2cc;strokeColor=#d6b656;strokeWidth=2;fontSize=16;" vertex="1" parent="uHR5nA1OztCmX1UTt5yI-1">
                    <mxGeometry x="200" y="200" width="160" height="20" as="geometry"/>
                </mxCell>
                <mxCell id="og-IJ7-DKsv4-gDsXRXE-4" value="... ..." style="rounded=0;whiteSpace=wrap;html=1;fillColor=#fff2cc;strokeColor=#d6b656;strokeWidth=2;fontSize=16;" vertex="1" parent="uHR5nA1OztCmX1UTt5yI-1">
                    <mxGeometry x="200" y="220" width="160" height="40" as="geometry"/>
                </mxCell>
                <mxCell id="og-IJ7-DKsv4-gDsXRXE-5" value="pgid n" style="rounded=0;whiteSpace=wrap;html=1;fillColor=#fff2cc;strokeColor=#d6b656;strokeWidth=2;fontSize=16;" vertex="1" parent="uHR5nA1OztCmX1UTt5yI-1">
                    <mxGeometry x="200" y="260" width="160" height="20" as="geometry"/>
                </mxCell>
                <mxCell id="og-IJ7-DKsv4-gDsXRXE-6" value="count" style="rounded=0;whiteSpace=wrap;html=1;fillColor=#d5e8d4;strokeColor=#82b366;strokeWidth=2;fontSize=16;" vertex="1" parent="uHR5nA1OztCmX1UTt5yI-1">
                    <mxGeometry x="200" y="140" width="40" height="20" as="geometry"/>
                </mxCell>
                <mxCell id="30Fc5VCzwGpgcrwEjtgi-0" value="" style="shape=curlyBracket;whiteSpace=wrap;html=1;rounded=1;strokeWidth=1;fontSize=16;" vertex="1" parent="uHR5nA1OztCmX1UTt5yI-1">
                    <mxGeometry x="180" y="160" width="20" height="120" as="geometry"/>
                </mxCell>
                <mxCell id="30Fc5VCzwGpgcrwEjtgi-1" value="page.count" style="text;html=1;align=center;verticalAlign=middle;resizable=0;points=[];autosize=1;fontSize=16;" vertex="1" parent="uHR5nA1OztCmX1UTt5yI-1">
                    <mxGeometry x="90" y="210" width="90" height="20" as="geometry"/>
                </mxCell>
            </root>
        </mxGraphModel>
    </diagram>
    <diagram name="freelist page huge" id="PzIOhotAqtHGXbaKQgfU">
        <mxGraphModel dx="1240" dy="726" grid="1" gridSize="10" guides="1" tooltips="1" connect="1" arrows="1" fold="1" page="1" pageScale="1" pageWidth="827" pageHeight="1169" background="#ffffff" math="0" shadow="0">
            <root>
                <mxCell id="Kk89OZkQ5UPcqPTNVp1d-0"/>
                <mxCell id="Kk89OZkQ5UPcqPTNVp1d-1" parent="Kk89OZkQ5UPcqPTNVp1d-0"/>
                <mxCell id="Kk89OZkQ5UPcqPTNVp1d-2" value="pgid 1 (0)" style="rounded=0;whiteSpace=wrap;html=1;fillColor=#fff2cc;strokeColor=#d6b656;strokeWidth=2;fontSize=16;" vertex="1" parent="Kk89OZkQ5UPcqPTNVp1d-1">
                    <mxGeometry x="200" y="180" width="160" height="20" as="geometry"/>
                </mxCell>
                <mxCell id="Kk89OZkQ5UPcqPTNVp1d-3" value="page" style="rounded=0;whiteSpace=wrap;html=1;fillColor=#dae8fc;strokeColor=#6c8ebf;strokeWidth=2;fontSize=16;" vertex="1" parent="Kk89OZkQ5UPcqPTNVp1d-1">
                    <mxGeometry x="200" y="120" width="160" height="40" as="geometry"/>
                </mxCell>
                <mxCell id="Kk89OZkQ5UPcqPTNVp1d-4" value="pgid 2&amp;nbsp;(1)" style="rounded=0;whiteSpace=wrap;html=1;fillColor=#fff2cc;strokeColor=#d6b656;strokeWidth=2;fontSize=16;" vertex="1" parent="Kk89OZkQ5UPcqPTNVp1d-1">
                    <mxGeometry x="200" y="200" width="160" height="20" as="geometry"/>
                </mxCell>
                <mxCell id="Kk89OZkQ5UPcqPTNVp1d-6" value="... ..." style="rounded=0;whiteSpace=wrap;html=1;fillColor=#fff2cc;strokeColor=#d6b656;strokeWidth=2;fontSize=16;" vertex="1" parent="Kk89OZkQ5UPcqPTNVp1d-1">
                    <mxGeometry x="200" y="220" width="160" height="60" as="geometry"/>
                </mxCell>
                <mxCell id="Kk89OZkQ5UPcqPTNVp1d-15" style="edgeStyle=orthogonalEdgeStyle;rounded=0;orthogonalLoop=1;jettySize=auto;html=1;exitX=0;exitY=0.5;exitDx=0;exitDy=0;" edge="1" parent="Kk89OZkQ5UPcqPTNVp1d-1" source="Kk89OZkQ5UPcqPTNVp1d-8" target="Kk89OZkQ5UPcqPTNVp1d-10">
                    <mxGeometry relative="1" as="geometry"/>
                </mxCell>
                <mxCell id="Kk89OZkQ5UPcqPTNVp1d-8" value="count" style="rounded=0;whiteSpace=wrap;html=1;fillColor=#d5e8d4;strokeColor=#82b366;strokeWidth=2;fontSize=16;" vertex="1" parent="Kk89OZkQ5UPcqPTNVp1d-1">
                    <mxGeometry x="200" y="140" width="40" height="20" as="geometry"/>
                </mxCell>
                <mxCell id="Kk89OZkQ5UPcqPTNVp1d-10" value="page.count = 0xFF" style="text;html=1;align=center;verticalAlign=middle;resizable=0;points=[];autosize=1;fontSize=16;" vertex="1" parent="Kk89OZkQ5UPcqPTNVp1d-1">
                    <mxGeometry x="10" y="140" width="150" height="20" as="geometry"/>
                </mxCell>
                <mxCell id="Kk89OZkQ5UPcqPTNVp1d-11" value="pgid 0 (count)" style="rounded=0;whiteSpace=wrap;html=1;fillColor=#d5e8d4;strokeColor=#82b366;strokeWidth=2;fontSize=16;" vertex="1" parent="Kk89OZkQ5UPcqPTNVp1d-1">
                    <mxGeometry x="200" y="160" width="160" height="20" as="geometry"/>
                </mxCell>
                <mxCell id="Kk89OZkQ5UPcqPTNVp1d-12" value="... ..." style="rounded=0;whiteSpace=wrap;html=1;fillColor=#fff2cc;strokeColor=#d6b656;strokeWidth=2;fontSize=16;" vertex="1" parent="Kk89OZkQ5UPcqPTNVp1d-1">
                    <mxGeometry x="360" y="120" width="160" height="160" as="geometry"/>
                </mxCell>
                <mxCell id="Kk89OZkQ5UPcqPTNVp1d-13" value="... ..." style="rounded=0;whiteSpace=wrap;html=1;fillColor=#fff2cc;strokeColor=#d6b656;strokeWidth=2;fontSize=16;" vertex="1" parent="Kk89OZkQ5UPcqPTNVp1d-1">
                    <mxGeometry x="520" y="120" width="160" height="140" as="geometry"/>
                </mxCell>
                <mxCell id="Kk89OZkQ5UPcqPTNVp1d-14" value="pgid count (count-1)" style="rounded=0;whiteSpace=wrap;html=1;fillColor=#fff2cc;strokeColor=#d6b656;strokeWidth=2;fontSize=16;" vertex="1" parent="Kk89OZkQ5UPcqPTNVp1d-1">
                    <mxGeometry x="520" y="260" width="160" height="20" as="geometry"/>
                </mxCell>
                <mxCell id="EiigHFks3LPd-YMuV4eD-0" value="" style="shape=curlyBracket;whiteSpace=wrap;html=1;rounded=1;strokeWidth=1;fontSize=16;rotation=-90;" vertex="1" parent="Kk89OZkQ5UPcqPTNVp1d-1">
                    <mxGeometry x="510" y="130" width="20" height="320" as="geometry"/>
                </mxCell>
                <mxCell id="EiigHFks3LPd-YMuV4eD-1" value="overflow" style="text;html=1;align=center;verticalAlign=middle;resizable=0;points=[];autosize=1;fontSize=16;" vertex="1" parent="Kk89OZkQ5UPcqPTNVp1d-1">
                    <mxGeometry x="480" y="300" width="80" height="20" as="geometry"/>
                </mxCell>
            </root>
        </mxGraphModel>
    </diagram>
</mxfile>